<svg width="206" height="49" viewBox="0 0 206 49" fill="none" xmlns="http://www.w3.org/2000/svg">
<path d="M40.0819 45.4868H40.8468V38.6193H40.0819V36.115H46.7807C48.0925 36.115 49.0959 36.3987 49.7868 36.9621C50.4776 37.5255 50.8231 38.4384 50.8231 39.7008C50.8231 40.9633 50.4776 41.8762 49.7868 42.4396C49.0959 43.003 48.0925 43.2867 46.7807 43.2867H45.1194V45.4826H46.5833V47.987H40.0819V45.4868ZM45.6375 41.1237C46.2256 41.1237 46.5217 40.7988 46.5217 40.145V39.5939C46.5217 39.2567 46.4476 39.01 46.2996 38.8537C46.1516 38.6975 45.9295 38.6152 45.6375 38.6152H45.1194V41.1196H45.6375V41.1237Z" fill="white"/>
<path d="M55.585 45.4868H56.3499V38.6193H55.585V36.115H62.5882C63.9 36.115 64.9034 36.3864 65.5942 36.9251C66.2851 37.4638 66.6305 38.3397 66.6305 39.5487C66.6305 40.2313 66.4948 40.8194 66.2193 41.317C65.9438 41.8145 65.5531 42.16 65.0432 42.3532L65.0596 42.5054C66.0383 42.6575 66.5236 43.2579 66.5236 44.3066V45.4826H67.2391V47.987H62.4072V44.4011C62.4072 44.0064 62.3497 43.7062 62.2304 43.5005C62.1112 43.299 61.9302 43.1592 61.6794 43.0893C61.4285 43.0194 61.0749 42.9824 60.6184 42.9824V45.4868H61.6259V47.9911H55.5809V45.4868H55.585ZM61.445 41.1237C61.7411 41.1237 61.959 41.0455 62.1071 40.8852C62.2551 40.7289 62.3291 40.4822 62.3291 40.145V39.5939C62.3291 39.2567 62.2551 39.01 62.1071 38.8537C61.959 38.6975 61.737 38.6152 61.445 38.6152H60.6225V41.1196H61.445V41.1237Z" fill="white"/>
<path d="M73.465 46.7368C72.4534 45.758 71.9476 44.1995 71.9476 42.0529C71.9476 39.9064 72.4534 38.3437 73.465 37.3691C74.4767 36.3904 75.9159 35.9052 77.7747 35.9052C79.6334 35.9052 81.0727 36.3945 82.0843 37.3691C83.0959 38.3478 83.6017 39.9064 83.6017 42.0529C83.6017 44.1995 83.0959 45.7622 82.0843 46.7368C81.0727 47.7155 79.6334 48.2007 77.7747 48.2007C75.9159 48.2007 74.4767 47.7155 73.465 46.7368ZM78.5519 45.2111C78.7246 45.0261 78.811 44.7423 78.811 44.3558V39.7501C78.811 39.3635 78.7246 39.0798 78.5519 38.8947C78.3792 38.7097 78.1201 38.6192 77.7747 38.6192C77.4292 38.6192 77.1702 38.7097 76.9975 38.8947C76.8247 39.0798 76.7384 39.3635 76.7384 39.7501V44.3599C76.7384 44.7547 76.8247 45.0425 76.9975 45.2235C77.1702 45.4003 77.4292 45.4908 77.7747 45.4908C78.1201 45.4867 78.3792 45.3962 78.5519 45.2111Z" fill="white"/>
<path d="M88.3636 45.4868H89.1285V38.6359H88.3636V36.1191H94.5608C96.2591 36.1191 97.6121 36.5838 98.6113 37.5173C99.6147 38.4467 100.116 39.96 100.116 42.0572C100.116 44.1544 99.6147 45.6678 98.6113 46.5971C97.608 47.5265 96.2591 47.9953 94.5608 47.9953H88.3636V45.4868ZM94.2853 45.4868C94.6307 45.4868 94.8898 45.3964 95.0625 45.2113C95.2352 45.0263 95.3216 44.7425 95.3216 44.356V39.7503C95.3216 38.9977 94.9761 38.6194 94.2853 38.6194H93.4011V45.4868H94.2853Z" fill="white"/>
<path d="M106.885 47.1481C106.013 46.4449 105.582 45.3058 105.582 43.7308V38.6193H104.817V36.115H110.463V38.6193H109.854V44.508C109.854 44.8453 109.928 45.092 110.076 45.2482C110.224 45.4045 110.446 45.4868 110.738 45.4868C111.034 45.4868 111.252 45.4086 111.4 45.2482C111.548 45.092 111.622 44.8453 111.622 44.508V38.6193H111.014V36.115H116.249V38.6193H115.484V43.7308C115.484 45.3058 115.06 46.449 114.217 47.1481C113.374 47.8513 112.161 48.2008 110.586 48.2008C108.986 48.2008 107.753 47.8513 106.885 47.1481Z" fill="white"/>
<path d="M122.512 46.7368C121.467 45.7581 120.949 44.1996 120.949 42.053C120.949 37.9531 122.943 35.9011 126.932 35.9011C127.899 35.9011 128.795 36.0204 129.626 36.2507C130.456 36.4851 131.073 36.7441 131.48 37.0279V40.844H127.816V39.7461C127.816 39.3595 127.73 39.0758 127.557 38.8907C127.385 38.7057 127.126 38.6152 126.78 38.6152C126.435 38.6152 126.176 38.7057 126.003 38.8907C125.83 39.0758 125.744 39.3595 125.744 39.7461V44.3559C125.744 44.7424 125.83 45.0262 126.003 45.2112C126.176 45.3963 126.435 45.4867 126.78 45.4867C127.126 45.4867 127.385 45.3963 127.557 45.2112C127.73 45.0262 127.816 44.7424 127.816 44.3559V43.1181H131.48V47.0699C131.065 47.3537 130.444 47.6128 129.626 47.8472C128.807 48.0816 127.919 48.1967 126.961 48.1967C125.037 48.2008 123.552 47.7156 122.512 46.7368Z" fill="white"/>
<path d="M147.683 39.8078H145.059V38.6193H144.08V45.4868H145.149V47.9911H138.738V45.4868H139.808V38.6193H138.829V39.8078H136.205V36.115H147.683V39.8078Z" fill="white"/>
<path d="M154.402 47.9499C153.53 47.7813 152.864 47.5921 152.395 47.3783V44.3558H155.751C155.751 44.6725 155.821 44.8986 155.965 45.0426C156.109 45.1865 156.368 45.2564 156.742 45.2564C157.058 45.2564 157.285 45.2071 157.42 45.1125C157.556 45.0179 157.626 44.8699 157.626 44.6766C157.626 44.5121 157.56 44.3723 157.429 44.2571C157.297 44.142 157.067 44.0186 156.742 43.8994L155.43 43.4429C154.299 43.0152 153.489 42.5135 152.996 41.9337C152.502 41.3539 152.255 40.5726 152.255 39.5856C152.255 38.3849 152.65 37.4719 153.44 36.8469C154.229 36.2218 155.541 35.9093 157.383 35.9093C158.267 35.9093 159.098 35.9998 159.879 36.1766C160.657 36.3534 161.286 36.5919 161.763 36.888V39.6185H158.712C158.712 39.1086 158.395 38.8536 157.766 38.8536C157.461 38.8536 157.244 38.8907 157.116 38.9688C156.989 39.0469 156.927 39.1785 156.927 39.3718C156.927 39.5445 157.001 39.6802 157.149 39.783C157.297 39.8858 157.54 39.9927 157.873 40.1038L159.201 40.5602C160.278 40.9262 161.064 41.4032 161.557 41.9872C162.051 42.5711 162.297 43.336 162.297 44.2818C162.297 45.573 161.862 46.5518 160.994 47.2138C160.122 47.8759 158.851 48.2049 157.169 48.2049C156.195 48.2008 155.274 48.1185 154.402 47.9499Z" fill="white"/>
<path d="M0.661987 30.473V3.01154C0.661987 1.7861 1.65304 0.795044 2.87848 0.795044H203.769C204.995 0.795044 205.986 1.7861 205.986 3.01154V30.473H0.661987Z" fill="#CAA031"/>
<path d="M12.1598 26.846V22.7585H13.7636V11.5403H12.1598V7.45276H28.5964V13.909H23.6658V11.5403H19.8044V15.6772H24.6034V19.7566H19.8044V22.7585H22.7488V26.846H12.1598Z" fill="white"/>
<path d="M29.5999 26.846V22.7585H31.2571V11.5403H29.5999V7.45276H38.9387V11.5403H37.2815V22.7585H38.9387V26.846H29.5999Z" fill="white"/>
<path d="M39.868 26.846V22.7585H41.114V11.5403H39.868V7.45276H48.8286V11.5403H47.2002V22.7585H50.4241V19.6208H55.1779V26.846H39.868Z" fill="white"/>
<path d="M140.202 26.846V22.7585H141.448V11.5403H140.202V7.45276H149.163V11.5403H147.535V22.7585H150.759V19.6208H155.512V26.846H140.202Z" fill="white"/>
<path d="M74.5671 15.0727H70.2781V11.5403H68.6825V22.7585H70.4261V26.846H60.4745V22.7585H62.2181V11.5403H60.6226V15.0727H56.3335V7.45276H74.5589V15.0727H74.5671Z" fill="white"/>
<path d="M194.838 15.0727H190.549V11.5403H188.953V22.7585H190.697V26.846H180.745V22.7585H182.489V11.5403H180.893V15.0727H176.604V7.45276H194.829V15.0727H194.838Z" fill="white"/>
<path d="M94.8774 11.5403H93.6314V22.7585H94.8774V26.846H86.3815V22.7585H87.5782V19.1932H82.9931V22.7585H84.1897V26.846H75.4183V22.7585H76.6643V11.5403H75.4183V7.45276H84.1897V11.5403H82.9931V15.3277H87.5782V11.5403H86.3815V7.45276H94.8774V11.5403Z" fill="white"/>
<path d="M106.556 7.44873H114.209V11.5363H112.581L107.605 20.1638V22.7545H108.851V26.842H100.17V22.7545H101.671V20.1638L96.4565 11.5404H95.4573V7.45285H104.829V11.5404H103.756L105.701 16.0721H105.952L107.868 11.5404H106.548V7.44873H106.556Z" fill="white"/>
<path d="M173.158 9.98983C171.55 8.38195 169.342 7.19763 166.266 7.19763C163.19 7.19763 161.006 8.40662 159.398 10.0145C158.004 11.4085 156.639 13.7649 156.639 17.1492C156.639 20.5336 157.494 23.1942 159.168 24.7363C160.838 26.2784 163.194 27.2736 166.266 27.2736C169.342 27.2736 171.809 26.1509 173.479 24.6088C175.148 23.0667 175.893 20.5336 175.893 17.1492C175.893 14.4187 174.762 11.5936 173.158 9.98983ZM168.412 21.5C167.907 22.4088 167.191 22.8611 166.266 22.8611C165.341 22.8611 164.625 22.4088 164.119 21.5C163.613 20.5912 163.363 19.1437 163.363 17.1492C163.363 15.1548 163.774 13.7649 164.193 12.9465C164.678 12.0007 165.336 11.4373 166.262 11.4373C167.187 11.4373 167.853 11.9843 168.338 12.9342C168.824 13.88 169.165 15.5455 169.165 17.1533C169.169 19.1395 168.914 20.5912 168.412 21.5Z" fill="white"/>
<path d="M139.051 20.2706C138.447 16.7382 133.512 15.336 130.633 14.7315C127.755 14.127 128.211 11.3265 130.609 11.3265C132.714 11.3265 133.857 13.909 133.857 13.909V14.8754H138.808V7.44869H133.857V9.91603C133.857 9.91603 131.263 6.36308 126.472 7.35824C124.568 7.75301 123.281 8.6618 122.471 9.75977C121.237 11.4293 121.097 13.5389 121.562 14.9823C121.957 16.2119 123.182 17.4908 124.634 18.379C126.167 19.3166 127.96 19.8389 129.276 19.9499C131.789 20.1637 131.912 21.932 131.04 22.3432C130.173 22.7503 127.755 22.9436 126.324 20.9245V19.8759H121.007V26.8379H126.328V24.79C127.434 25.7522 128.943 27.0435 132.788 27.2573C136.707 27.4794 139.656 23.803 139.051 20.2706Z" fill="white"/>
</svg>
