<svg width="206" height="49" viewBox="0 0 206 49" fill="none" xmlns="http://www.w3.org/2000/svg">
<path d="M0.0142822 30.5779V3.11229C0.0153715 2.52515 0.249375 1.96242 0.66493 1.54764C1.08049 1.13286 1.64364 0.899901 2.23078 0.899902H203.122C203.709 0.899901 204.272 1.13286 204.687 1.54764C205.103 1.96242 205.337 2.52515 205.338 3.11229V30.5779H0.0142822Z" fill="#CAA031"/>
<path d="M146.805 48.1001V45.5958H147.565V38.7078H146.805V36.1993H152.299V38.7078H151.299V45.5876H153.277V43.663H156.193V48.1001H146.805Z" fill="white"/>
<path d="M74.6595 38.498H73.8905V45.3778H74.6554V47.8862H69.4493V45.3778H70.1895V43.1942H67.3809V45.3778H68.1129V47.8862H62.7258V45.3778H63.4907V38.498H62.7258V35.9937H68.1046V38.498H67.3726V40.8214H70.1895V38.498H69.4493V35.9937H74.6595V38.498Z" fill="white"/>
<path d="M48.9252 46.4552C47.9136 45.5094 47.4091 44.0016 47.4119 41.9318C47.4119 37.9676 49.3405 35.9855 53.1978 35.9855C54.0768 35.9776 54.9528 36.0911 55.8008 36.3227C56.4347 36.4765 57.04 36.7305 57.5938 37.0752V40.7762H54.0531V39.7112C54.0755 39.4153 53.986 39.1218 53.8023 38.8887C53.7021 38.7946 53.5835 38.7223 53.454 38.6763C53.3245 38.6303 53.1868 38.6116 53.0498 38.6214C52.9126 38.6108 52.7747 38.6292 52.6451 38.6752C52.5155 38.7212 52.397 38.794 52.2972 38.8887C52.1117 39.1208 52.0219 39.4151 52.0464 39.7112V44.1688C52.0219 44.465 52.1117 44.7592 52.2972 44.9913C52.3972 45.0855 52.5158 45.1576 52.6455 45.203C52.7751 45.2483 52.9129 45.2658 53.0498 45.2545C53.1866 45.2651 53.3241 45.2472 53.4536 45.2019C53.5832 45.1566 53.7019 45.0849 53.8023 44.9913C53.986 44.7582 54.0755 44.4647 54.0531 44.1688V42.9722H57.5938V46.7965C57.0384 47.1382 56.4337 47.392 55.8008 47.5491C54.9626 47.7807 54.0962 47.8942 53.2266 47.8863C51.3761 47.8863 49.9423 47.4093 48.9252 46.4552Z" fill="white"/>
<path d="M90.1832 45.2585H90.7754V47.6889H84.9936V45.2668H85.8818L85.6433 44.0866H83.6365L83.4021 45.2668H84.2863V47.6889H79.2365V45.2668H79.8245L82.3206 36.2198H87.6912L90.1832 45.2585ZM83.9573 42.5157H85.3143L84.7098 39.5795H84.5824L83.9573 42.5157Z" fill="white"/>
<path d="M103.823 36.1993H108.664V38.6173H107.923V47.6643H103.778L99.4522 41.0065V45.2421H100.164V47.6889H95.3235V45.2668H96.0596V38.6173H95.3235V36.1993H100.649L104.531 42.1169V38.6173H103.823V36.1993Z" fill="white"/>
<path d="M121.831 36.1993H126.675V38.6173H125.935V47.6643H121.79L117.48 41.023V45.2586H118.188V47.6889H113.331V45.2668H114.071V38.6173H113.331V36.1993H118.677L122.559 42.1169V38.6173H121.847L121.831 36.1993Z" fill="white"/>
<path d="M131.503 48.1001V45.5958H132.284V38.7078H131.503V36.1993H141.825V40.8174H138.399V38.7078H136.549V41.1093H137.893V42.8529H136.549V45.5752H138.399V43.1655H141.825V48.1001H131.503Z" fill="white"/>
<path d="M11.5121 26.9509V22.8633H13.1159V11.641H11.5121V7.55347H27.961V14.0097H23.0263V11.641H19.165V15.7821H23.968V19.8614H19.1526V22.8633H22.097V26.9509H11.5121Z" fill="white"/>
<path d="M28.952 26.9509V22.8633H30.5969V11.641H28.952V7.55347H38.2868V11.641H36.6419V22.8633H38.2868V26.9509H28.952Z" fill="white"/>
<path d="M39.2203 26.9509V22.8633H40.454V11.641H39.2203V7.55347H48.1768V11.641H46.5525V22.8633H49.7723V19.7257H54.5261V26.955L39.2203 26.9509Z" fill="white"/>
<path d="M139.555 26.9509V22.8633H140.788V11.641H139.555V7.55347H148.511V11.641H146.887V22.8633H150.111V19.7257H154.86V26.955L139.555 26.9509Z" fill="white"/>
<path d="M73.9193 15.1734H69.6343V11.641H68.0388V22.8633H69.7782V26.9509H59.8266V22.8633H61.5743V11.641H59.9788V15.1734H55.6938V7.55347H73.9193V15.1734Z" fill="white"/>
<path d="M194.19 15.1734H189.901V11.641H188.309V22.8633H190.053V26.9509H180.101V22.8633H181.849V11.641H180.253V15.1734H175.964V7.55347H194.19V15.1734Z" fill="white"/>
<path d="M94.2296 11.641H92.996V22.8633H94.2296V26.9509H85.7338V22.8633H86.9304V19.3145H82.3453V22.8798H83.5419V26.9673H74.7747V22.8798H76.0083V11.641H74.7747V7.55347H83.5419V11.641H82.3453V15.4325H86.9304V11.641H85.7338V7.55347H94.2296V11.641Z" fill="white"/>
<path d="M105.908 7.55347H113.561V11.641H111.916L106.945 20.2767V22.8715H108.178V26.9591H99.5262V22.8715H101.031V20.2767L95.8169 11.641H94.8218V7.55347H104.194V11.641H103.12L105.069 16.1645H105.316L107.232 11.641H105.917L105.908 7.55347Z" fill="white"/>
<path d="M172.51 10.0907C170.668 8.29612 168.197 7.29387 165.625 7.29848C163.054 7.30309 160.586 8.3142 158.751 10.1154C157.357 11.5094 155.991 13.8657 155.991 17.2542C155.991 20.6427 156.843 23.2992 158.516 24.8372C160.19 26.3751 162.542 27.3744 165.618 27.3744C168.272 27.4298 170.849 26.4793 172.831 24.7138C174.505 23.1717 175.245 20.6386 175.245 17.2542C175.245 14.5237 174.114 11.6986 172.51 10.0907ZM167.765 21.605C167.573 22.0122 167.269 22.3564 166.889 22.5975C166.509 22.8387 166.068 22.9667 165.618 22.9667C165.168 22.9667 164.727 22.8387 164.347 22.5975C163.967 22.3564 163.663 22.0122 163.471 21.605C162.967 20.6975 162.715 19.2486 162.715 17.2583C162.661 15.8114 162.943 14.3716 163.537 13.0515C164.023 12.1057 164.68 11.5423 165.593 11.5423C166.506 11.5423 167.185 12.0934 167.67 13.0392C168.24 14.3713 168.521 15.8095 168.493 17.2583C168.512 19.2459 168.269 20.6948 167.765 21.605Z" fill="white"/>
<path d="M138.403 20.3754C137.799 16.843 132.864 15.4408 129.986 14.8363C127.107 14.2318 127.564 11.4313 129.961 11.4313C132.066 11.4313 133.21 14.0138 133.21 14.0138V14.9802H138.144V7.55349H133.21V10.0208C132.336 8.94762 131.181 8.13956 129.873 7.68766C128.565 7.23575 127.157 7.15795 125.808 7.46302C124.22 7.73322 122.792 8.59043 121.806 9.86456C121.266 10.6085 120.903 11.4664 120.745 12.3724C120.588 13.2784 120.64 14.2085 120.898 15.0912C121.309 16.3249 122.518 17.5956 123.969 18.4838C125.384 19.3437 126.97 19.8814 128.616 20.0588C131.129 20.2726 131.252 22.0409 130.38 22.4521C129.548 22.7697 128.634 22.8028 127.78 22.5462C126.927 22.2895 126.183 21.7576 125.664 21.0334V19.9848H120.359V26.9468H125.68V24.8907C126.786 25.857 128.295 27.1442 132.14 27.358C136.059 27.5842 139.008 23.9078 138.403 20.3754Z" fill="white"/>
</svg>
