<svg width="206" height="49" viewBox="0 0 206 49" fill="none" xmlns="http://www.w3.org/2000/svg">
<path d="M0.338135 30.4751V3.01362C0.338135 1.78817 1.32918 0.797119 2.55463 0.797119H203.445C204.671 0.797119 205.662 1.78817 205.662 3.01362V30.4751H0.338135Z" fill="#CAA031"/>
<path d="M11.8359 26.848V22.7604H13.4397V11.5423H11.8359V7.45471H28.2725V13.9109H23.342V11.5423H19.4806V15.6792H24.2796V19.7585H19.4806V22.7604H22.4249V26.848H11.8359Z" fill="white"/>
<path d="M29.2759 26.848V22.7604H30.9331V11.5423H29.2759V7.45471H38.6148V11.5423H36.9575V22.7604H38.6148V26.848H29.2759Z" fill="white"/>
<path d="M39.5442 26.848V22.7604H40.7902V11.5423H39.5442V7.45471H48.5047V11.5423H46.8763V22.7604H50.1003V19.6228H54.854V26.848H39.5442Z" fill="white"/>
<path d="M139.879 26.848V22.7604H141.125V11.5423H139.879V7.45471H148.839V11.5423H147.211V22.7604H150.435V19.6228H155.188V26.848H139.879Z" fill="white"/>
<path d="M74.2432 15.0747H69.9541V11.5423H68.3586V22.7604H70.1021V26.848H60.1505V22.7604H61.8941V11.5423H60.2986V15.0747H56.0095V7.45471H74.2349V15.0747H74.2432Z" fill="white"/>
<path d="M194.514 15.0747H190.225V11.5423H188.629V22.7604H190.373V26.848H180.421V22.7604H182.165V11.5423H180.569V15.0747H176.28V7.45471H194.505V15.0747H194.514Z" fill="white"/>
<path d="M94.5536 11.5423H93.3076V22.7604H94.5536V26.848H86.0577V22.7604H87.2544V19.1951H82.6692V22.7604H83.8659V26.848H75.0945V22.7604H76.3405V11.5423H75.0945V7.45471H83.8659V11.5423H82.6692V15.3296H87.2544V11.5423H86.0577V7.45471H94.5536V11.5423Z" fill="white"/>
<path d="M106.232 7.45471H113.885V11.5423H112.257L107.281 20.1697V22.7604H108.527V26.848H99.8459V22.7604H101.347V20.1697L96.1326 11.5423H95.1333V7.45471H104.505V11.5423H103.432L105.377 16.0739H105.628L107.544 11.5423H106.224V7.45471H106.232Z" fill="white"/>
<path d="M172.834 9.99203C171.226 8.38414 169.018 7.19983 165.942 7.19983C162.866 7.19983 160.682 8.40883 159.074 10.0167C157.68 11.4108 156.315 13.7671 156.315 17.1514C156.315 20.5358 157.171 23.1964 158.844 24.7385C160.514 26.2806 162.87 27.2758 165.942 27.2758C169.018 27.2758 171.485 26.1531 173.155 24.611C174.824 23.0689 175.569 20.5358 175.569 17.1514C175.569 14.4209 174.438 11.5958 172.834 9.99203ZM168.089 21.5022C167.583 22.411 166.867 22.8633 165.942 22.8633C165.017 22.8633 164.301 22.411 163.795 21.5022C163.29 20.5934 163.039 19.1459 163.039 17.1514C163.039 15.157 163.45 13.7671 163.869 12.9487C164.355 12.0029 165.013 11.4395 165.938 11.4395C166.863 11.4395 167.529 11.9865 168.014 12.9364C168.5 13.8822 168.841 15.5477 168.841 17.1555C168.845 19.1459 168.59 20.5975 168.089 21.5022Z" fill="white"/>
<path d="M138.727 20.2768C138.123 16.7443 133.188 15.3421 130.309 14.7376C127.431 14.1331 127.887 11.3326 130.285 11.3326C132.39 11.3326 133.533 13.9151 133.533 13.9151V14.8815H138.484V7.45481H133.533V9.92215C133.533 9.92215 130.939 6.36918 126.148 7.36434C124.244 7.75911 122.957 8.66792 122.147 9.76588C120.913 11.4355 120.773 13.545 121.238 14.9884C121.633 16.218 122.858 17.4969 124.31 18.3851C125.843 19.3227 127.636 19.845 128.952 19.956C131.465 20.1698 131.588 21.9381 130.716 22.3493C129.849 22.7564 127.431 22.9497 126 20.9306V19.882H120.683V26.844H126.004V24.7961C127.11 25.7584 128.619 27.0496 132.464 27.2634C136.383 27.4855 139.332 23.8092 138.727 20.2768Z" fill="white"/>
<path d="M52.3785 39.8144H49.7549V38.6259H48.7762V45.4934H49.8454V47.9977H43.4344V45.4934H44.5036V38.6259H43.5248V39.8144H40.9012V36.1216H52.3785V39.8144Z" fill="white"/>
<path d="M57.1364 45.4888H57.9013V38.6214H57.1364V36.1171H64.1395C65.4513 36.1171 66.4547 36.3885 67.1456 36.9272C67.8364 37.4659 68.1819 38.3418 68.1819 39.5508C68.1819 40.2334 68.0462 40.8215 67.7706 41.319C67.4951 41.8166 67.1045 42.162 66.5945 42.3553L66.611 42.5075C67.5897 42.6596 68.0749 43.26 68.0749 44.3086V45.4847H68.7905V47.9891H63.9545V44.4032C63.9545 44.0084 63.8969 43.7082 63.7777 43.5026C63.6584 43.3011 63.4775 43.1613 63.2266 43.0914C62.9758 43.0215 62.6221 42.9845 62.1657 42.9845V45.4888H63.1732V47.9932H57.1282V45.4888H57.1364ZM62.9963 41.1258C63.2924 41.1258 63.5104 41.0476 63.6584 40.8872C63.8064 40.731 63.8805 40.4843 63.8805 40.147V39.596C63.8805 39.2588 63.8064 39.0121 63.6584 38.8558C63.5104 38.6995 63.2883 38.6173 62.9963 38.6173H62.1739V41.1216H62.9963V41.1258Z" fill="white"/>
<path d="M84.7912 45.4888H85.3998V47.9932H79.4165V45.4888H80.3335L80.0909 44.2675H78.0142L77.7716 45.4888H78.6886V47.9932H73.4702V45.4888H74.0788L76.6572 36.1171H82.2128L84.7912 45.4888ZM78.3514 42.6514H79.7537L79.1286 39.6166H78.9765L78.3514 42.6514Z" fill="white"/>
<path d="M90.1288 47.9932V45.4888H90.8937V38.6214H90.1288V36.1171H95.927V38.6214H95.1622V45.4888H95.927V47.9932H90.1288Z" fill="white"/>
<path d="M109.571 36.1212H114.576V38.6255H113.811V47.9973H109.522L105.056 41.1093V45.4888H105.788V47.9932H100.784V45.4888H101.548V38.6214H100.784V36.1171H106.29L110.303 42.2361V38.6214H109.571V36.1212Z" fill="white"/>
<path d="M119.4 47.9932V45.4888H120.165V38.6214H119.4V36.1171H125.198V38.6214H124.433V45.4888H125.198V47.9932H119.4Z" fill="white"/>
<path d="M138.842 36.1212H143.847V38.6256H143.082V47.9973H138.793L134.323 41.1135V45.493H135.055V47.9973H130.05V45.493H130.815V38.6256H130.05V36.1212H135.561L139.574 42.2402V38.6256H138.842V36.1212Z" fill="white"/>
<path d="M160.172 44.1769H159.408V47.2282C158.959 47.4831 158.305 47.7093 157.446 47.9067C156.587 48.1041 155.657 48.2028 154.662 48.2028C152.758 48.2028 151.269 47.7011 150.192 46.6977C149.115 45.6943 148.576 44.1481 148.576 42.0509C148.576 39.9043 149.111 38.3416 150.188 37.367C151.261 36.3883 152.795 35.9031 154.79 35.9031C155.756 35.9031 156.661 36.0059 157.508 36.2074C158.351 36.413 158.988 36.6392 159.416 36.8941V40.5417H155.6V39.8262C155.6 39.3985 155.509 39.0901 155.332 38.9009C155.156 38.7117 154.872 38.6172 154.485 38.6172C154.099 38.6172 153.815 38.7117 153.638 38.9009C153.461 39.0901 153.371 39.3985 153.371 39.8262V44.2838C153.371 44.7115 153.461 45.0199 153.638 45.2091C153.815 45.3982 154.099 45.4928 154.485 45.4928C154.872 45.4928 155.156 45.3982 155.332 45.2091C155.509 45.0199 155.6 44.7115 155.6 44.2838V44.1769H154.777V41.9028H160.181V44.1769H160.172Z" fill="white"/>
</svg>
